<svg id="Layer_1" data-name="Layer 1" xmlns="http://www.w3.org/2000/svg" viewBox="0 0 232.48 134"><title>Web_stuff</title><circle cx="115.94" cy="51.53" r="12" style="fill:#fff;stroke:#231f20;stroke-miterlimit:10"/><circle cx="115.94" cy="82.47" r="12" style="fill:#fff;stroke:#231f20;stroke-miterlimit:10"/><circle cx="30.03" cy="20.6" r="12" style="fill:#fff;stroke:#231f20;stroke-miterlimit:10"/><circle cx="30.03" cy="51.53" r="12" style="fill:#fff;stroke:#231f20;stroke-miterlimit:10"/><circle cx="30.03" cy="82.47" r="12" style="fill:#fff;stroke:#231f20;stroke-miterlimit:10"/><circle cx="30.03" cy="113.4" r="12" style="fill:#fff;stroke:#231f20;stroke-miterlimit:10"/><line x1="42.03" y1="20.6" x2="103.94" y2="51.53" style="fill:none;stroke:#231f20;stroke-linecap:round;stroke-miterlimit:10;stroke-width:0.5px"/><line x1="42.03" y1="51.53" x2="103.94" y2="51.53" style="fill:none;stroke:#231f20;stroke-linecap:round;stroke-miterlimit:10;stroke-width:0.5px"/><line x1="42.03" y1="82.47" x2="103.94" y2="51.53" style="fill:none;stroke:#231f20;stroke-linecap:round;stroke-miterlimit:10;stroke-width:0.5px"/><line x1="42.03" y1="113.4" x2="103.94" y2="51.53" style="fill:none;stroke:#231f20;stroke-linecap:round;stroke-miterlimit:10;stroke-width:0.5px"/><line x1="42.03" y1="20.6" x2="103.94" y2="82.47" style="fill:none;stroke:#231f20;stroke-linecap:round;stroke-miterlimit:10;stroke-width:0.5px"/><line x1="42.03" y1="51.53" x2="103.94" y2="82.47" style="fill:none;stroke:#231f20;stroke-linecap:round;stroke-miterlimit:10;stroke-width:0.5px"/><line x1="42.03" y1="82.47" x2="103.94" y2="82.47" style="fill:none;stroke:#231f20;stroke-linecap:round;stroke-miterlimit:10;stroke-width:0.5px"/><line x1="42.03" y1="113.4" x2="103.94" y2="82.47" style="fill:none;stroke:#231f20;stroke-linecap:round;stroke-miterlimit:10;stroke-width:0.5px"/><circle cx="202.45" cy="113.4" r="12" style="fill:#fff;stroke:#231f20;stroke-miterlimit:10"/><circle cx="202.45" cy="82.47" r="12" style="fill:#fff;stroke:#231f20;stroke-miterlimit:10"/><circle cx="202.45" cy="51.53" r="12" style="fill:#fff;stroke:#231f20;stroke-miterlimit:10"/><circle cx="202.45" cy="20.6" r="12" style="fill:#fff;stroke:#231f20;stroke-miterlimit:10"/><line x1="190.45" y1="113.4" x2="128.54" y2="82.47" style="fill:none;stroke:#231f20;stroke-linecap:round;stroke-miterlimit:10;stroke-width:0.5px"/><line x1="190.45" y1="82.47" x2="128.54" y2="82.47" style="fill:none;stroke:#231f20;stroke-linecap:round;stroke-miterlimit:10;stroke-width:0.5px"/><line x1="190.45" y1="51.53" x2="128.54" y2="82.47" style="fill:none;stroke:#231f20;stroke-linecap:round;stroke-miterlimit:10;stroke-width:0.5px"/><line x1="190.45" y1="20.6" x2="128.54" y2="82.47" style="fill:none;stroke:#231f20;stroke-linecap:round;stroke-miterlimit:10;stroke-width:0.5px"/><line x1="190.45" y1="113.4" x2="128.54" y2="51.53" style="fill:none;stroke:#231f20;stroke-linecap:round;stroke-miterlimit:10;stroke-width:0.5px"/><line x1="190.45" y1="82.47" x2="128.54" y2="51.53" style="fill:none;stroke:#231f20;stroke-linecap:round;stroke-miterlimit:10;stroke-width:0.5px"/><line x1="190.45" y1="51.53" x2="128.54" y2="51.53" style="fill:none;stroke:#231f20;stroke-linecap:round;stroke-miterlimit:10;stroke-width:0.5px"/><line x1="190.45" y1="20.6" x2="128.54" y2="51.53" style="fill:none;stroke:#231f20;stroke-linecap:round;stroke-miterlimit:10;stroke-width:0.5px"/></svg>